<?xml version="1.0" encoding="UTF-8" standalone="no"?>
<!-- Created with Inkscape (http://www.inkscape.org/) -->

<svg
   xmlns:dc="http://purl.org/dc/elements/1.1/"
   xmlns:cc="http://creativecommons.org/ns#"
   xmlns:rdf="http://www.w3.org/1999/02/22-rdf-syntax-ns#"
   xmlns:svg="http://www.w3.org/2000/svg"
   xmlns="http://www.w3.org/2000/svg"
   xmlns:sodipodi="http://sodipodi.sourceforge.net/DTD/sodipodi-0.dtd"
   xmlns:inkscape="http://www.inkscape.org/namespaces/inkscape"
   width="229.02669"
   height="56.70689"
   viewBox="0 0 16 15.003697"
   version="1.1"
   id="svg3314"
   inkscape:version="0.92.0 r15299"
   sodipodi:docname="brightcove.svg">
  <defs
     id="defs3308" />
  <sodipodi:namedview
     id="base"
     pagecolor="#ffffff"
     bordercolor="#666666"
     borderopacity="1.0"
     inkscape:pageopacity="0.0"
     inkscape:pageshadow="2"
     inkscape:zoom="3.9510772"
     inkscape:cx="113.51335"
     inkscape:cy="27.353443"
     inkscape:document-units="mm"
     inkscape:current-layer="layer1"
     showgrid="false"
     fit-margin-top="0"
     fit-margin-left="0"
     fit-margin-right="0"
     fit-margin-bottom="0"
     units="px"
     inkscape:window-width="1280"
     inkscape:window-height="744"
     inkscape:window-x="-4"
     inkscape:window-y="-4"
     inkscape:window-maximized="1" />
  <metadata
     id="metadata3311">
    <rdf:RDF>
      <cc:Work
         rdf:about="">
        <dc:format>image/svg+xml</dc:format>
        <dc:type
           rdf:resource="http://purl.org/dc/dcmitype/StillImage" />
        <dc:title></dc:title>
      </cc:Work>
    </rdf:RDF>
  </metadata>
  <g
     inkscape:label="Layer 1"
     inkscape:groupmode="layer"
     id="layer1"
     transform="translate(17.560526,-141.06691)">
    <g
       id="g3391"
       transform="translate(0.26458222,-0.26457591)">
      <path
         inkscape:connector-curvature="0"
         id="path3098"
         style="fill:#94c039;fill-opacity:1;fill-rule:evenodd;stroke:none;stroke-width:0.35277778"
         d="m -7.4041357,149.07148 v 0 l -0.0106,0.0882 -0.0282,0.0776 -0.6731,1.16769 -0.7881101,1.36173 v 0 l -0.0617,0.1023 -0.0769,0.0847 -0.0854,0.0776 -0.0879,0.06 -0.11288,0.0529 -0.1005499,0.0353 -0.12382,0.0282 -0.11324,0.0106 h -2.9255903 v 0 l -0.0621,-0.0106 -0.0617,-0.0141 -0.0515,-0.0388 -0.049,-0.0353 -0.0385,-0.0388 -0.0254,-0.0635 -0.0236,-0.0635 v -0.0635 0 -0.0741 l 0.0363,-0.0741 0.76235,-1.33703 0.68757,-1.2065 v 0 l 0.0642,-0.0882 0.0748,-0.0882 0.0875,-0.0741 0.100191,-0.0741 0.0984,-0.0494 0.11324,-0.0388 0.11324,-0.0247 h 0.12382 2.9255898 v 0 h 0.0656 l 0.0459,0.0247 0.063499,0.0247 0.0388,0.0353 0.0494,0.0529 0.0247,0.0494 0.0141,0.0635 z m 0,-1.02658 v 0 l -0.0106,-0.0882 -0.0282,-0.0776 -0.673099,-1.17123 -0.7881101,-1.36877 v 0 l -0.0617,-0.0882 -0.0769,-0.0882 -0.0854,-0.0776 -0.0879,-0.0635 -0.11288,-0.0494 -0.1005499,-0.0388 -0.12382,-0.0247 -0.11324,-0.0106 h -2.9255913 v 0 l -0.0621,0.0106 -0.0617,0.0141 -0.0515,0.0247 -0.049,0.0353 -0.0385,0.0529 -0.0254,0.0635 -0.0236,0.0494 v 0.0635 0 0.0882 l 0.0363,0.0741 0.76235,1.3335 0.68757,1.21003 v 0 l 0.0642,0.0882 0.0748,0.0882 0.0875,0.0741 0.100191,0.0635 0.0984,0.0494 0.11324,0.0388 0.11324,0.0247 0.12382,0.0106 h 2.9255898 v 0 l 0.0656,-0.0106 0.0459,-0.0141 0.063499,-0.0247 0.0388,-0.0388 0.0494,-0.0494 0.0247,-0.0494 0.0141,-0.06 z" />
      <path
         inkscape:connector-curvature="0"
         id="path3100"
         style="fill:#d4247b;fill-opacity:1;fill-rule:evenodd;stroke:none;stroke-width:0.35277778"
         d="m -2.9168057,149.0609 v 0 l -0.0106,0.0882 -0.0388,0.0776 -0.66675,1.17122 -0.79023,1.36172 v 0 l -0.0635,0.10231 -0.0741,0.0882 -0.0882,0.0741 -0.0882,0.0635 -0.11642,0.0529 -0.10936,0.0353 -0.11289,0.0282 -0.127,0.0106 h -2.9276999 v 0 l -0.0642,-0.0106 -0.0625,-0.0141 -0.0515,-0.0388 -0.0494,-0.0353 -0.0363,-0.0388 -0.0388,-0.0635 -0.0127,-0.0635 -0.012999,-0.0635 v 0 l 0.012999,-0.0776 0.0385,-0.0741 0.76694,-1.33703 0.6914399,-1.21003 v 0 l 0.06,-0.0882 0.0776,-0.0882 0.0882,-0.0741 0.0988,-0.0741 0.10231,-0.0494 0.11288,-0.0388 0.11289,-0.0247 h 0.127 2.92453 v 0 h 0.0776 l 0.0494,0.0247 0.0635,0.0247 0.0388,0.0353 0.0353,0.0529 0.0388,0.0494 0.0141,0.0635 z m -5.5421298,3.86997 v 0 l 0.012999,0.0776 0.0385,0.0776 0.6656901,1.17122 0.7926897,1.3723 v 0 l 0.06,0.10231 0.0776,0.0741 0.0882,0.0776 0.0988,0.0776 0.10231,0.0494 0.11288,0.0353 0.11289,0.0247 h 0.127 2.92453 v 0 h 0.0776 l 0.0494,-0.0247 0.0635,-0.0247 0.0388,-0.0388 0.0353,-0.0494 0.0388,-0.0494 0.0141,-0.0635 0.0106,-0.0635 v 0 l -0.0106,-0.0882 -0.0388,-0.0635 -0.76553,-1.34761 -0.69145,-1.19945 v 0 l -0.0635,-0.0988 -0.0741,-0.0882 -0.0882,-0.0776 -0.0882,-0.06 -0.11642,-0.0494 -0.10936,-0.0388 -0.11289,-0.0282 -0.127,-0.0106 h -2.9276988 v 0 l -0.0642,0.0106 -0.0625,0.0141 -0.0515,0.0388 -0.0494,0.0353 -0.0363,0.0529 -0.0388,0.0494 -0.0127,0.0635 z" />
      <path
         inkscape:connector-curvature="0"
         id="path3102"
         style="fill:#069bb3;fill-opacity:1;fill-rule:evenodd;stroke:none;stroke-width:0.35277778"
         d="m -13.209096,145.5931 1.45909,2.55058 v 0 l 0.0515,0.0988 0.0367,0.11641 0.0257,0.127 v 0.11289 0.10936 l -0.0257,0.11642 -0.0367,0.10936 -0.0515,0.10231 -0.70485,1.19239 -0.76729,1.3335 v 0 l -0.0494,0.06 -0.0751,0.0494 v 0 l -0.0494,0.0282 -0.0624,0.0106 h -0.0642 l -0.0624,-0.0106 -0.0515,-0.0141 -0.0625,-0.0353 -0.0363,-0.0388 -0.0388,-0.0494 -1.45909,-2.55059 v 0 l -0.0624,-0.11641 -0.0385,-0.10937 -0.0109,-0.11288 -0.0127,-0.11289 0.0127,-0.12348 0.0236,-0.11641 0.0388,-0.0988 0.0494,-0.10231 0.79305,-1.3723 0.6791,-1.15358 v 0 l 0.0494,-0.0776 0.0621,-0.0494 v 0 l 0.0646,-0.0247 0.0624,-0.0141 h 0.0642 l 0.0497,0.0141 0.0621,0.0247 0.0494,0.0282 0.0515,0.0494 z m -2.64089,-3.9617 v 0 l -0.0624,0.0529 -0.0515,0.0635 -0.6791,1.16769 -0.79304,1.3582 v 0 l -0.0494,0.11289 -0.0384,0.0988 -0.0236,0.11642 -0.0131,0.11289 0.0131,0.12347 0.0236,0.11289 0.0384,0.11289 0.0494,0.11642 1.45909,2.53647 v 0 l 0.0388,0.0635 0.0494,0.0353 0.0515,0.0388 0.0515,0.0141 0.0625,0.0106 h 0.0624 l 0.0621,-0.0106 0.0624,-0.0247 v 0 l 0.0646,-0.0494 0.0494,-0.0635 0.76729,-1.3335 0.70485,-1.19239 v 0 l 0.0515,-0.11642 0.0363,-0.0988 0.0258,-0.11289 v -0.11289 -0.127 l -0.0258,-0.11289 -0.0363,-0.11289 -0.0515,-0.11289 -1.45944,-2.54 v 0 l -0.0363,-0.06 -0.0515,-0.0388 -0.0515,-0.0388 -0.0624,-0.0106 -0.0494,-0.0141 h -0.0624 l -0.0625,0.0141 z" />
    </g>
  </g>
</svg>
