<svg width="136" height="38" viewBox="0 0 32 38" fill="none" xmlns="http://www.w3.org/2000/svg">
<g clip-path="url(#clip0_591_3272)">
<path d="M18.2155 23.3079C19.0561 23.3079 19.7345 23.9879 19.7345 24.8304V31.4241C19.7345 32.2667 19.0561 32.9467 18.2155 32.9467H1.51895C0.678385 32.9467 0 32.2667 0 31.4241V14.6861C0 13.8436 0.678385 13.1636 1.51895 13.1636H8.09711C8.93768 13.1636 9.61606 13.8436 9.61606 14.6861V22.2948C9.61606 22.8519 10.071 23.3099 10.6287 23.3099H18.2195L18.2155 23.3079Z" fill="#51A9E3"></path>
<path d="M11.0443 13.2547H18.6351C19.1909 13.2547 19.6478 13.7107 19.6478 14.2698V21.8785C19.6478 22.721 20.3262 23.401 21.1667 23.401H27.7449C28.5854 23.401 29.2638 22.721 29.2638 21.8785V5.1385C29.2638 4.29595 28.5854 3.61597 27.7449 3.61597H11.0443C10.2038 3.61597 9.52539 4.29595 9.52539 5.1385V11.7322C9.52539 12.5748 10.2038 13.2547 11.0443 13.2547Z" fill="#51A9E3"></path>
</g>
<defs>
<clipPath id="clip0_591_3272">
<rect width="135.317" height="38" fill="white"></rect>
</clipPath>
</defs>
</svg>
